Coordinates
version=1
nRows=25
nColumns=34
inDegrees=no

Units are S.I. units (second, meters, Newtons, ...)
If the header above contains a line with 'inDegrees', this indicates whether rotational values are in degrees (yes) or radians (no).

endheader
time	pelvis_tilt	pelvis_list	pelvis_rotation	pelvis_tx	pelvis_ty	pelvis_tz	hip_flexion_r	hip_adduction_r	hip_rotation_r	knee_angle_r	ankle_angle_r	subtalar_angle_r	mtp_angle_r	hip_flexion_l	hip_adduction_l	hip_rotation_l	knee_angle_l	ankle_angle_l	subtalar_angle_l	mtp_angle_l	lumbar_extension	lumbar_bending	lumbar_rotation	arm_flex_r	arm_add_r	arm_rot_r	elbow_flex_r	pro_sup_r	arm_flex_l	arm_add_l	arm_rot_l	elbow_flex_l	pro_sup_l
3.35	-0.198128	-0.123389	-0.0144811	-0.215352	0.916096	-0.504751	0.573607	0.0390607	-0.176723	0.612437	0.268119	-0.104045	-0.100417	0.621103	-0.439274	-0.163049	0.628664	0.291613	0.262815	-0.100417	-0.189546	0.12061	-0.0038213	0.234835	-0.442008	0.10033	2.1094	1.48649	0.233307	-0.351512	0.041724	2.04892	1.39228
3.36	-0.210127	-0.122668	-0.0136559	-0.219474	0.911618	-0.504221	0.604936	0.0365648	-0.175509	0.63799	0.273318	-0.113479	-0.100417	0.653451	-0.438811	-0.1496	0.65006	0.294568	0.254633	-0.100417	-0.192614	0.119318	-0.00640057	0.25908	-0.446884	0.105446	2.11186	1.4868	0.255289	-0.356444	0.0390776	2.05608	1.39273
3.37	-0.221917	-0.122041	-0.012985	-0.223612	0.906946	-0.503705	0.636094	0.0340463	-0.174527	0.663613	0.279235	-0.121922	-0.100417	0.685852	-0.438545	-0.136778	0.672033	0.297955	0.247432	-0.100417	-0.196047	0.118198	-0.00861253	0.283799	-0.451842	0.1105	2.11403	1.48713	0.277608	-0.361167	0.0366991	2.06307	1.39333
3.38	-0.233359	-0.121531	-0.0124441	-0.227751	0.902093	-0.50321	0.666891	0.0315314	-0.173732	0.689258	0.285852	-0.12943	-0.100417	0.718166	-0.438508	-0.12456	0.694607	0.301765	0.241222	-0.100417	-0.19995	0.117299	-0.0104439	0.308985	-0.456929	0.115531	2.11591	1.48746	0.30024	-0.36568	0.0346353	2.06981	1.39439
3.39	-0.244364	-0.121152	-0.0120109	-0.231874	0.897071	-0.502742	0.697217	0.029038	-0.17307	0.714906	0.293104	-0.136096	-0.100417	0.7503	-0.438704	-0.112897	0.717772	0.305977	0.235981	-0.100417	-0.204369	0.116656	-0.0118784	0.334609	-0.462203	0.120576	2.11751	1.48775	0.323138	-0.369984	0.0329302	2.07626	1.39622
3.4	-0.254916	-0.12093	-0.0116735	-0.235968	0.891886	-0.502303	0.727048	0.0265964	-0.172507	0.740553	0.300888	-0.142044	-0.100417	0.782233	-0.43913	-0.101697	0.741484	0.310566	0.231658	-0.100417	-0.209277	0.116313	-0.0128884	0.360614	-0.467726	0.125664	2.11886	1.48798	0.34623	-0.374081	0.0316253	2.08241	1.39903
3.41	-0.265052	-0.120915	-0.0114382	-0.240022	0.886544	-0.501894	0.756421	0.0242641	-0.172039	0.766192	0.309063	-0.147409	-0.100417	0.814007	-0.439802	-0.0908183	0.765679	0.315511	0.228172	-0.100417	-0.214591	0.116328	-0.0134313	0.38694	-0.473551	0.130813	2.11999	1.48812	0.369426	-0.377965	0.0307524	2.08827	1.4029
3.42	-0.274825	-0.121182	-0.0113361	-0.244026	0.881046	-0.501511	0.785391	0.022129	-0.171705	0.791811	0.317465	-0.152315	-0.100417	0.845692	-0.440759	-0.0800874	0.790286	0.3208	0.225425	-0.100417	-0.220225	0.116775	-0.0134482	0.41355	-0.479715	0.136042	2.12095	1.48821	0.392625	-0.381626	0.0303237	2.09388	1.40766
3.43	-0.284276	-0.121822	-0.0114251	-0.247972	0.875399	-0.50115	0.813995	0.020302	-0.171572	0.817384	0.325924	-0.156857	-0.100417	0.877345	-0.442075	-0.0693181	0.815236	0.326426	0.223315	-0.100417	-0.22612	0.117734	-0.0128665	0.440437	-0.486232	0.141375	2.12177	1.48824	0.415733	-0.385042	0.0303246	2.09931	1.41293
3.44	-0.293417	-0.122919	-0.0117881	-0.251851	0.869615	-0.500799	0.842231	0.0189044	-0.171717	0.842872	0.334288	-0.161088	-0.100417	0.908988	-0.443842	-0.0583469	0.840468	0.332383	0.221743	-0.100417	-0.232255	0.119271	-0.011604	0.467619	-0.49308	0.146841	2.12244	1.48823	0.438664	-0.388194	0.0307093	2.10463	1.41823
3.45	-0.302234	-0.124539	-0.0125215	-0.255655	0.863706	-0.500449	0.870065	0.0180494	-0.172204	0.86823	0.342438	-0.16503	-0.100417	0.940595	-0.446163	-0.0470608	0.865929	0.338657	0.220637	-0.100417	-0.23864	0.121415	-0.00958139	0.49512	-0.500192	0.152471	2.12298	1.48809	0.461353	-0.391065	0.0313984	2.10988	1.42319
3.46	-0.310692	-0.126701	-0.0137087	-0.259374	0.85769	-0.500088	0.897441	0.0178087	-0.173066	0.89342	0.350298	-0.168675	-0.100417	0.972097	-0.449111	-0.0354122	0.891567	0.345221	0.219945	-0.100417	-0.245299	0.124148	-0.00675084	0.522952	-0.50745	0.15829	2.12334	1.48767	0.48375	-0.393657	0.032287	2.11506	1.42764
3.47	-0.318741	-0.129362	-0.0153825	-0.262997	0.851586	-0.499709	0.924287	0.0181662	-0.174305	0.918422	0.357841	-0.17199	-0.100417	1.00338	-0.452678	-0.023418	0.917319	0.352029	0.219616	-0.100417	-0.252262	0.127386	-0.00313645	0.551109	-0.514694	0.164313	2.12351	1.48677	0.505815	-0.395993	0.0332599	2.12017	1.43158
3.48	-0.326318	-0.132402	-0.0174934	-0.266515	0.845413	-0.499315	0.950529	0.0189814	-0.175891	0.943246	0.365091	-0.174911	-0.100416	1.03428	-0.456729	-0.0111509	0.943104	0.359013	0.219576	-0.100417	-0.259565	0.130989	0.00113408	0.579564	-0.521735	0.170537	2.12342	1.48519	0.527514	-0.398116	0.0342098	2.12516	1.43509
3.49	-0.333346	-0.135634	-0.0199057	-0.269919	0.839194	-0.498914	0.976089	0.0199943	-0.177765	0.967924	0.372108	-0.177362	-0.100416	1.06458	-0.460995	0.00126969	0.968818	0.366084	0.219718	-0.100417	-0.26725	0.13476	0.00583138	0.608267	-0.528377	0.176932	2.12304	1.48293	0.548825	-0.400085	0.0350569	2.13002	1.43818
3.5	-0.339754	-0.13882	-0.0224265	-0.273206	0.832951	-0.498523	1.00089	0.0208783	-0.179831	0.992495	0.378969	-0.179283	-0.100416	1.09406	-0.465129	0.0136875	0.99433	0.373139	0.219909	-0.100417	-0.275361	0.138469	0.0106655	0.637134	-0.534445	0.183438	2.12234	1.48009	0.569739	-0.401971	0.035761	2.13475	1.44088
3.51	-0.345487	-0.141725	-0.0248546	-0.276374	0.826707	-0.498156	1.02488	0.0213202	-0.181967	1.01699	0.385744	-0.180651	-0.100416	1.12249	-0.468781	0.0259275	1.0195	0.380076	0.220023	-0.100417	-0.283929	0.141884	0.0153468	0.66605	-0.539797	0.189969	2.12132	1.47688	0.590269	-0.403844	0.0363233	2.13935	1.4432
3.52	-0.350534	-0.144154	-0.027032	-0.279427	0.820481	-0.49782	1.04804	0.0211007	-0.184031	1.04139	0.392475	-0.181505	-0.100416	1.14971	-0.471679	0.0378251	1.0442	0.386803	0.219968	-0.100417	-0.292954	0.1448	0.0196447	0.694865	-0.544334	0.196419	2.12004	1.47351	0.610438	-0.405772	0.036775	2.14381	1.44521
3.53	-0.354948	-0.145992	-0.0288779	-0.28237	0.814291	-0.497514	1.07039	0.0201476	-0.185887	1.06564	0.399167	-0.181944	-0.100416	1.17565	-0.47369	0.0492606	1.06831	0.393245	0.219701	-0.100416	-0.302383	0.147079	0.0234267	0.723404	-0.547999	0.202673	2.11859	1.47022	0.630261	-0.40781	0.0371636	2.14815	1.44693
3.54	-0.35885	-0.147226	-0.0303965	-0.285213	0.808148	-0.497227	1.09202	0.0185411	-0.187433	1.08963	0.405791	-0.18211	-0.100416	1.20038	-0.474831	0.060182	1.09174	0.399348	0.21924	-0.100416	-0.312102	0.148666	0.0266686	0.751474	-0.550772	0.20862	2.11708	1.46719	0.649739	-0.409994	0.037542	2.15242	1.4484
3.55	-0.362408	-0.147932	-0.0316579	-0.287961	0.80206	-0.496941	1.11303	0.0164732	-0.188625	1.11324	0.412296	-0.182152	-0.100416	1.22408	-0.475242	0.0706112	1.11446	0.405082	0.218656	-0.100416	-0.321946	0.149591	0.0294368	0.778884	-0.552674	0.214161	2.11563	1.46457	0.668838	-0.412345	0.037962	2.15664	1.44964
3.56	-0.365809	-0.148258	-0.0327624	-0.29062	0.796032	-0.496636	1.13357	0.0141831	-0.18949	1.13632	0.418626	-0.182193	-0.100416	1.24698	-0.475134	0.0806361	1.13643	0.410442	0.218052	-0.100416	-0.331732	0.14996	0.0318518	0.805459	-0.553765	0.219226	2.11436	1.46244	0.687501	-0.414864	0.0384689	2.16085	1.45064
3.57	-0.369227	-0.14839	-0.0338037	-0.293196	0.790068	-0.496297	1.15374	0.0118963	-0.190126	1.15876	0.424727	-0.18232	-0.100416	1.26936	-0.474724	0.0903935	1.15765	0.415439	0.217536	-0.100416	-0.341278	0.149933	0.0340494	0.831057	-0.554141	0.223788	2.11334	1.46083	0.705646	-0.417533	0.0390993	2.16508	1.4514
3.58	-0.372798	-0.14852	-0.0348447	-0.295688	0.784171	-0.495914	1.17363	0.00978229	-0.190679	1.18046	0.430551	-0.182584	-0.100416	1.29144	-0.474194	0.10004	1.17814	0.420101	0.217201	-0.100416	-0.350432	0.149702	0.0361517	0.85558	-0.553927	0.227855	2.11261	1.45973	0.723191	-0.420315	0.0398832	2.16934	1.45194
3.59	-0.376603	-0.148818	-0.0359086	-0.298096	0.778347	-0.495483	1.19326	0.0079409	-0.191314	1.20135	0.436061	-0.183013	-0.100416	1.31338	-0.473674	0.109718	1.19788	0.424461	0.217126	-0.100416	-0.359087	0.149455	0.0382555	0.878974	-0.553267	0.231471	2.11218	1.45913	0.740075	-0.423155	0.0408488	2.1736	1.45225
